<svg width="58" height="58" viewBox="0 0 58 58" fill="none" xmlns="http://www.w3.org/2000/svg">
<path d="M39.759 31.059C40.023 30.7832 40.23 30.458 40.368 30.102C40.6581 29.396 40.6581 28.604 40.368 27.898C40.23 27.542 40.023 27.2168 39.759 26.941L31.059 18.241C30.5129 17.6949 29.7723 17.3881 29 17.3881C28.2277 17.3881 27.4871 17.6949 26.941 18.241C26.3949 18.7871 26.0881 19.5277 26.0881 20.3C26.0881 21.0723 26.3949 21.8129 26.941 22.359L30.711 26.1H20.3C19.5309 26.1 18.7933 26.4055 18.2494 26.9494C17.7055 27.4932 17.4 28.2309 17.4 29C17.4 29.7691 17.7055 30.5067 18.2494 31.0506C18.7933 31.5945 19.5309 31.9 20.3 31.9H30.711L26.941 35.641C26.6692 35.9106 26.4535 36.2313 26.3062 36.5847C26.159 36.9381 26.0832 37.3172 26.0832 37.7C26.0832 38.0828 26.159 38.4619 26.3062 38.8153C26.4535 39.1687 26.6692 39.4894 26.941 39.759C27.2106 40.0308 27.5313 40.2465 27.8847 40.3938C28.2381 40.541 28.6172 40.6168 29 40.6168C29.3828 40.6168 29.7619 40.541 30.1153 40.3938C30.4687 40.2465 30.7894 40.0308 31.059 39.759L39.759 31.059ZM58 29C58 23.2643 56.2992 17.6575 53.1126 12.8884C49.9261 8.11942 45.3969 4.40241 40.0978 2.20747C34.7988 0.0125275 28.9678 -0.561768 23.3424 0.557205C17.7169 1.67618 12.5496 4.43816 8.49392 8.49389C4.4382 12.5496 1.67621 17.7169 0.55724 23.3424C-0.561733 28.9678 0.0125656 34.7988 2.20751 40.0978C4.40245 45.3969 8.11945 49.9261 12.8885 53.1126C17.6575 56.2992 23.2644 58 29 58C32.8083 58 36.5794 57.2499 40.0978 55.7925C43.6163 54.3351 46.8132 52.199 49.5061 49.5061C54.9447 44.0675 58 36.6913 58 29ZM5.80001 29C5.80001 24.4115 7.16068 19.926 9.70992 16.1108C12.2592 12.2955 15.8825 9.32193 20.1218 7.56598C24.361 5.81002 29.0257 5.35059 33.5261 6.24576C38.0265 7.14094 42.1603 9.35052 45.4049 12.5951C48.6495 15.8397 50.859 19.9735 51.7542 24.4739C52.6494 28.9743 52.19 33.639 50.434 37.8782C48.6781 42.1175 45.7045 45.7408 41.8892 48.2901C38.074 50.8393 33.5885 52.2 29 52.2C22.847 52.2 16.946 49.7557 12.5951 45.4049C8.24429 41.054 5.80001 35.153 5.80001 29Z" fill="#808080"/>
</svg>
